<svg id="g-tool-refine" xmlns="http://www.w3.org/2000/svg" viewBox="0 0 32 32" width="32" height="32" role="img" aria-label="A loose edge pulled tight.">
  <title>Semant — Tool: Refine</title>
  <desc>A loose edge pulled tight.</desc>
  <style>
    #g-tool-refine{color:#1E1A1C}
    #g-tool-refine .mk{fill:none;stroke:var(--tick,currentColor);stroke-width:1.9;stroke-linecap:round;
                opacity:var(--tick-o,.35)}
  </style>

  <path d="M6.8 12.4 C9.2 7.8 15.6 6.8 20.2 9.4 C24.8 12 25.2 18.2 22 22
           C18.8 25.8 12.4 25.6 9.2 21.8 C7.2 19.4 6.2 15.8 6.8 12.4 Z"
        fill="none" stroke="#6B5A66" stroke-width="1.4" stroke-linecap="round"
        stroke-dasharray="2.2 2.8" opacity=".7"/>
  <path d="M10.2 13.6 C12 10.6 16.2 10 19.2 11.6 C22.2 13.2 22.6 17.4 20.6 20
           C18.6 22.6 14.2 22.6 12 20.2 C10.6 18.6 9.8 15.8 10.2 13.6 Z"
        fill="none" stroke="currentColor" stroke-width="1.8" stroke-linecap="round"/>
  <g fill="none" stroke="currentColor" stroke-width="1.4" stroke-linecap="round">
    <path d="M20.4 10.6 L22.4 8.4"/><path d="M11.2 21.4 L9.2 23.6"/>
  </g>
  <path class="mk" d="M23.8 7 C25 5.8 25.8 5 26.8 4"/>
</svg>
